<?xml version="1.0" encoding="utf-8"?>
<!DOCTYPE svg PUBLIC "-//W3C//DTD SVG 1.1//EN" "http://www.w3.org/Graphics/SVG/1.1/DTD/svg11.dtd">
<svg version="1.1" xmlns="http://www.w3.org/2000/svg" width="2048px" height="2048px" viewBox="0 0 2048 2048" preserveAspectRatio="xMidYMid meet">
	<style>
    .my-icon {
      fill: #172554;
    }

    @media (prefers-color-scheme: dark) {
      .my-icon {
        fill: #FFFFFF;
      }
    }
  </style>
  <path class="my-icon" d="M724.80 1677.80 c-12 -10.20 -25.60 -22 -30.20 -26.40 l-8.40 -8.20 -20 19.40 c-11 10.60 -21 19.40 -22.20 19.40 -3.40 0 -12 -20.40 -12.40 -29.20 -0.40 -4.40 0.20 -12.80 1 -18.80 l1.60 -11.20 -19.20 -24.20 -19 -24.20 -14 -0.80 c-14 -0.80 -22.80 -5.20 -21.60 -11 0.60 -3 69.40 -66.60 72 -66.60 0.80 0 3 2.80 4.80 6.40 2.40 4.80 3 9.60 2.20 19 l-1 12.60 8.40 6.40 c4.40 3.60 14.80 12.40 22.80 19.60 l14.60 13 19.40 0 c17.60 0 20.20 0.60 29 5.60 5.20 3 9.40 6.80 9.40 8.40 0 1.40 -8.80 10.80 -19.40 20.80 l-19.40 18 6 7.60 c18.20 22.60 42.80 57.80 42.80 60.80 0 4.60 -7 0.40 -27.20 -16.40z"/>
  <path class="my-icon" d="M766 1648.60 c-2.60 -3.20 -3.80 -7 -3.20 -9.60 0.60 -2.20 7 -16.40 14.20 -31.60 14.20 -29.80 18.20 -34.20 28 -29.80 7.60 3.60 10.40 11 7.20 20 -4.60 12.60 -22.20 49 -25.60 52.80 -5 5.60 -15.40 4.60 -20.60 -1.80z"/>
  <path class="my-icon" d="M808.40 1539.40 c-5.40 -5.60 -5.40 -9.80 -0.80 -44.80 2.60 -19.40 4.60 -27.40 7.20 -30.40 8.40 -9.20 23.20 -1.60 23.20 12 0 3.80 -1.80 19 -3.80 33.80 -3.20 22.60 -4.60 27.40 -8.20 30.40 -6 4.80 -12.40 4.40 -17.60 -1z"/>
  <path class="my-icon" d="M816.40 1413.40 c-2.20 -4.80 -6 -16 -8.60 -25 -2.80 -10.40 -5.40 -16.40 -7.20 -16.40 -1.60 0 -24.20 6.80 -50.40 15 -26.20 8.20 -48.60 15 -49.80 15 -1.60 0 -2.40 -5.40 -2.40 -17.20 0 -20.40 -4.40 -15 48.60 -58 20 -16.20 37.60 -30.60 39 -31.80 2.20 -2 2 -7.40 -0.40 -30.20 -4.40 -39.20 -6.80 -81.20 -8.40 -145.20 l-1.40 -55.60 -7.20 -0.20 c-4 -0.20 -20.20 -0.20 -36.20 -0.40 -25.40 0 -30.40 0.60 -40 4.40 -6 2.60 -31.20 11.60 -56 20.20 -24.80 8.60 -67 23.40 -93.80 32.80 -26.80 9.40 -50 17.20 -51.40 17.20 -4 0 -4 -36 0.20 -43.80 1.60 -3.20 9 -10.20 16.40 -15.80 13.20 -9.60 135.60 -93.40 224.20 -153.40 l44.20 -30 0.20 -52 c0.20 -74.40 2.80 -118 8.80 -141.20 9.20 -36.20 19.80 -57 32.80 -64.40 5.60 -3.20 7.40 -3.40 12.40 -1.40 13.60 5.60 24.60 24.60 33 57 7.60 28 9 46.40 10.40 127 l1.20 75.20 22.20 14.80 c26.80 18.20 166 112.80 202 137.40 63.20 43.20 63.20 43 63.20 72.40 0 10 -0.80 18.20 -1.60 18.20 -0.80 0 -19.60 -6.20 -41.40 -13.80 -22 -7.60 -70 -24.40 -106.80 -37 l-66.60 -23.20 -36.80 0 -36.80 0 0 47.60 c0 61 -4.40 147.20 -9 175.60 -1 5.80 0.60 7.20 40.60 39.40 23 18.40 43.40 35.20 45.40 37.40 4.40 5 7.20 38 3.20 38 -1.20 0 -24.40 -6.80 -51.40 -15.20 -2" />
  <path class="my-icon" d="M1434 499.40 c-9.80 -7.80 -44 -47.80 -44 -51.40 0 -5.20 8.60 -14 13.60 -14 5.20 0 16.20 8.80 29.80 24 17.40 19.40 20.60 24 20.60 30.20 0 10.60 -12.20 17.60 -20 11.20z"/>
  <path class="my-icon" d="M1347.20 419.80 c-22.40 -12 -46.40 -26.40 -48.60 -29.40 -4.40 -5.40 -3 -13.80 2.60 -18.20 3 -2.40 6.80 -4.20 8.60 -4.20 4.40 0 47.80 24.20 54.80 30.60 6.20 5.80 7 13 2 19 -5.40 6.20 -10.80 6.80 -19.40 2.20z"/>
  <path class="my-icon" d="M969.20 417.60 c-4.40 -6.20 -4 -12.40 1.40 -18.60 4.80 -5.60 50.40 -31 55.60 -31 6.60 0 13.80 8 13.80 15 0 8.20 -3.60 11.20 -32.60 27.20 -24.20 13.20 -33 14.80 -38.20 7.40z"/>
  <path class="my-icon" d="M1077.40 375.80 c-9.20 -5.40 -8.20 -21 1.80 -25.60 4.80 -2 35.40 -8.60 52.40 -11 7.40 -1 9.20 -0.60 13.40 3.60 6 6 6.60 15.60 1.20 21 -2.20 2.20 -8.20 4.40 -14.40 5.20 -6 0.80 -18.80 3 -28.80 5.20 -20.40 4.40 -20.80 4.40 -25.60 1.60z"/>
  <path class="my-icon" d="M1220.40 372 c-28.60 -6 -34.40 -9 -34.40 -18.40 0 -8 6.40 -13.60 15.60 -13.60 11.80 0.20 51.40 9 57.20 12.60 10.60 7 4.80 25.80 -7.80 25.20 -2.20 -0.20 -16 -2.80 -30.60 -5.80z"/>
</svg>